REM DIRINDEX 1\6,1\2\7,1\2\8,1\2\9,1\3\10,1\3\11,1\4\12,1\4\13,1\4\14,1\5\15,1\5\16,1\5\17
REM DIRNAME cjc040,folder01,folder02,folder03,folder04,folder05,folder06,folder07,folder08,folder09,folder10,folder11,folder12,folder13,folder14,folder15,folder16
TITLE ""
FILE "P2Q_t2_0789-0806.mp3" MP3
  TRACK 01 AUDIO
    TITLE "7:cjc040_6199"
    INDEX 01 00:00:00
  TRACK 02 AUDIO
    TITLE "0:"
    INDEX 01 00:01:05
  TRACK 03 AUDIO
    TITLE "8:cjc040_6200"
    INDEX 01 00:01:58
  TRACK 04 AUDIO
    TITLE "0:"
    INDEX 01 00:03:37
  TRACK 05 AUDIO
    TITLE "9:cjc040_6201"
    INDEX 01 00:04:13
  TRACK 06 AUDIO
    TITLE "0:"
    INDEX 01 00:05:30
  TRACK 07 AUDIO
    TITLE "7:cjc040_6202"
    INDEX 01 00:07:17
  TRACK 08 AUDIO
    TITLE "0:"
    INDEX 01 00:08:36
  TRACK 09 AUDIO
    TITLE "8:cjc040_6203"
    INDEX 01 00:09:10
  TRACK 10 AUDIO
    TITLE "0:"
    INDEX 01 00:10:51
  TRACK 11 AUDIO
    TITLE "9:cjc040_6204"
    INDEX 01 00:11:23
  TRACK 12 AUDIO
    TITLE "0:"
    INDEX 01 00:12:46
  TRACK 13 AUDIO
    TITLE "7:cjc040_6205"
    INDEX 01 00:14:27
  TRACK 14 AUDIO
    TITLE "0:"
    INDEX 01 00:15:48
  TRACK 15 AUDIO
    TITLE "8:cjc040_6206"
    INDEX 01 00:16:30
  TRACK 16 AUDIO
    TITLE "0:"
    INDEX 01 00:19:15
  TRACK 17 AUDIO
    TITLE "9:cjc040_6207"
    INDEX 01 00:19:65
  TRACK 18 AUDIO
    TITLE "0:"
    INDEX 01 00:21:11
  TRACK 19 AUDIO
    TITLE "7:cjc040_6208"
    INDEX 01 00:22:70
  TRACK 20 AUDIO
    TITLE "0:"
    INDEX 01 00:24:14
  TRACK 21 AUDIO
    TITLE "8:cjc040_6209"
    INDEX 01 00:24:72
  TRACK 22 AUDIO
    TITLE "0:"
    INDEX 01 00:27:43
  TRACK 23 AUDIO
    TITLE "9:cjc040_6210"
    INDEX 01 00:28:21
  TRACK 24 AUDIO
    TITLE "0:"
    INDEX 01 00:29:44
  TRACK 25 AUDIO
    TITLE "7:cjc040_6211"
    INDEX 01 00:31:24
  TRACK 26 AUDIO
    TITLE "0:"
    INDEX 01 00:32:21
  TRACK 27 AUDIO
    TITLE "8:cjc040_6212"
    INDEX 01 00:33:07
  TRACK 28 AUDIO
    TITLE "0:"
    INDEX 01 00:35:17
  TRACK 29 AUDIO
    TITLE "9:cjc040_6213"
    INDEX 01 00:35:70
  TRACK 30 AUDIO
    TITLE "0:"
    INDEX 01 00:36:70
  TRACK 31 AUDIO
    TITLE "7:cjc040_6214"
    INDEX 01 00:38:53
  TRACK 32 AUDIO
    TITLE "0:"
    INDEX 01 00:39:70
  TRACK 33 AUDIO
    TITLE "8:cjc040_6215"
    INDEX 01 00:40:48
  TRACK 34 AUDIO
    TITLE "0:"
    INDEX 01 00:43:23
  TRACK 35 AUDIO
    TITLE "9:cjc040_6216"
    INDEX 01 00:43:72
  TRACK 36 AUDIO
    TITLE "0:"
    INDEX 01 00:45:12
  TRACK 37 AUDIO
    TITLE "7:cjc040_6217"
    INDEX 01 00:46:68
  TRACK 38 AUDIO
    TITLE "0:"
    INDEX 01 00:47:64
  TRACK 39 AUDIO
    TITLE "8:cjc040_6218"
    INDEX 01 00:48:48
  TRACK 40 AUDIO
    TITLE "0:"
    INDEX 01 00:51:18
  TRACK 41 AUDIO
    TITLE "9:cjc040_6219"
    INDEX 01 00:51:71
  TRACK 42 AUDIO
    TITLE "0:"
    INDEX 01 00:52:73
  TRACK 43 AUDIO
    TITLE "7:cjc040_6220"
    INDEX 01 00:54:62
  TRACK 44 AUDIO
    TITLE "0:"
    INDEX 01 00:55:51
  TRACK 45 AUDIO
    TITLE "8:cjc040_6221"
    INDEX 01 00:56:45
  TRACK 46 AUDIO
    TITLE "0:"
    INDEX 01 01:00:19
  TRACK 47 AUDIO
    TITLE "9:cjc040_6222"
    INDEX 01 01:00:68
  TRACK 48 AUDIO
    TITLE "0:"
    INDEX 01 01:01:60
  TRACK 49 AUDIO
    TITLE "7:cjc040_6223"
    INDEX 01 01:03:53
  TRACK 50 AUDIO
    TITLE "0:"
    INDEX 01 01:05:01
  TRACK 51 AUDIO
    TITLE "8:cjc040_6224"
    INDEX 01 01:05:52
  TRACK 52 AUDIO
    TITLE "0:"
    INDEX 01 01:08:46
  TRACK 53 AUDIO
    TITLE "9:cjc040_6225"
    INDEX 01 01:09:22
  TRACK 54 AUDIO
    TITLE "0:"
    INDEX 01 01:10:45
  TRACK 55 AUDIO
    TITLE "7:cjc040_6226"
    INDEX 01 01:12:28
  TRACK 56 AUDIO
    TITLE "0:"
    INDEX 01 01:14:02
  TRACK 57 AUDIO
    TITLE "8:cjc040_6227"
    INDEX 01 01:14:55
  TRACK 58 AUDIO
    TITLE "0:"
    INDEX 01 01:17:47
  TRACK 59 AUDIO
    TITLE "9:cjc040_6228"
    INDEX 01 01:18:27
  TRACK 60 AUDIO
    TITLE "0:"
    INDEX 01 01:20:02
  TRACK 61 AUDIO
    TITLE "7:cjc040_6229"
    INDEX 01 01:21:57
  TRACK 62 AUDIO
    TITLE "0:"
    INDEX 01 01:22:64
  TRACK 63 AUDIO
    TITLE "8:cjc040_6230"
    INDEX 01 01:23:48
  TRACK 64 AUDIO
    TITLE "0:"
    INDEX 01 01:26:01
  TRACK 65 AUDIO
    TITLE "9:cjc040_6231"
    INDEX 01 01:26:50
  TRACK 66 AUDIO
    TITLE "0:"
    INDEX 01 01:27:57
  TRACK 67 AUDIO
    TITLE "7:cjc040_6232"
    INDEX 01 01:29:37
  TRACK 68 AUDIO
    TITLE "0:"
    INDEX 01 01:30:38
  TRACK 69 AUDIO
    TITLE "8:cjc040_6233"
    INDEX 01 01:31:14
  TRACK 70 AUDIO
    TITLE "0:"
    INDEX 01 01:33:48
  TRACK 71 AUDIO
    TITLE "9:cjc040_6234"
    INDEX 01 01:34:24
  TRACK 72 AUDIO
    TITLE "0:"
    INDEX 01 01:35:26
  TRACK 73 AUDIO
    TITLE "7:cjc040_6235"
    INDEX 01 01:37:19
  TRACK 74 AUDIO
    TITLE "0:"
    INDEX 01 01:38:34
  TRACK 75 AUDIO
    TITLE "8:cjc040_6236"
    INDEX 01 01:39:12
  TRACK 76 AUDIO
    TITLE "0:"
    INDEX 01 01:43:05
  TRACK 77 AUDIO
    TITLE "9:cjc040_6237"
    INDEX 01 01:43:58
  TRACK 78 AUDIO
    TITLE "0:"
    INDEX 01 01:44:72
  TRACK 79 AUDIO
    TITLE "7:cjc040_6238"
    INDEX 01 01:46:53
  TRACK 80 AUDIO
    TITLE "0:"
    INDEX 01 01:48:03
  TRACK 81 AUDIO
    TITLE "8:cjc040_6239"
    INDEX 01 01:48:60
  TRACK 82 AUDIO
    TITLE "0:"
    INDEX 01 01:51:46
  TRACK 83 AUDIO
    TITLE "9:cjc040_6240"
    INDEX 01 01:52:24
  TRACK 84 AUDIO
    TITLE "0:"
    INDEX 01 01:53:55
  TRACK 85 AUDIO
    TITLE "7:cjc040_6241"
    INDEX 01 01:55:32
  TRACK 86 AUDIO
    TITLE "0:"
    INDEX 01 01:56:37
  TRACK 87 AUDIO
    TITLE "8:cjc040_6242"
    INDEX 01 01:57:17
  TRACK 88 AUDIO
    TITLE "0:"
    INDEX 01 01:59:63
  TRACK 89 AUDIO
    TITLE "9:cjc040_6243"
    INDEX 01 02:00:41
  TRACK 90 AUDIO
    TITLE "0:"
    INDEX 01 02:01:48
  TRACK 91 AUDIO
    TITLE "7:cjc040_6244"
    INDEX 01 02:03:34
  TRACK 92 AUDIO
    TITLE "0:"
    INDEX 01 02:04:55
  TRACK 93 AUDIO
    TITLE "8:cjc040_6245"
    INDEX 01 02:05:36
  TRACK 94 AUDIO
    TITLE "0:"
    INDEX 01 02:07:08
  TRACK 95 AUDIO
    TITLE "9:cjc040_6246"
    INDEX 01 02:07:61
  TRACK 96 AUDIO
    TITLE "0:"
    INDEX 01 02:09:09
  TRACK 97 AUDIO
    TITLE "7:cjc040_6247"
    INDEX 01 02:10:65
  TRACK 98 AUDIO
    TITLE "0:"
    INDEX 01 02:12:05
  TRACK 99 AUDIO
    TITLE "8:cjc040_6248"
    INDEX 01 02:12:58
  TRACK 100 AUDIO
    TITLE "0:"
    INDEX 01 02:14:06
  TRACK 101 AUDIO
    TITLE "9:cjc040_6249"
    INDEX 01 02:14:57
  TRACK 102 AUDIO
    TITLE "0:"
    INDEX 01 02:15:72
  TRACK 103 AUDIO
    TITLE "7:cjc040_6250"
    INDEX 01 02:17:55
  TRACK 104 AUDIO
    TITLE "0:"
    INDEX 01 02:18:55
  TRACK 105 AUDIO
    TITLE "8:cjc040_6251"
    INDEX 01 02:19:35
  TRACK 106 AUDIO
    TITLE "0:"
    INDEX 01 02:25:08
  TRACK 107 AUDIO
    TITLE "9:cjc040_6252"
    INDEX 01 02:25:65
  TRACK 108 AUDIO
    TITLE "0:"
    INDEX 01 02:26:72
